<?xml version="1.0" encoding="UTF-8" standalone="no"?>
<!DOCTYPE svg PUBLIC "-//W3C//DTD SVG 1.1//EN" "http://www.w3.org/Graphics/SVG/1.1/DTD/svg11.dtd">
<svg width="100%" height="100%" viewBox="0 0 10000 10000" version="1.1" xmlns="http://www.w3.org/2000/svg" xmlns:xlink="http://www.w3.org/1999/xlink" xml:space="preserve" xmlns:serif="http://www.serif.com/" style="fill-rule:evenodd;clip-rule:evenodd;stroke-linejoin:round;stroke-miterlimit:2;">
    <g id="EdgeCuts">
        <path id="path2-4" d="M1580.96,191.624C1300.35,191.624 1036.05,221.304 836.771,275.155C619.815,333.776 505.16,414.752 505.16,509.36C505.16,511.321 505.358,513.286 505.643,515.21C506.975,523.605 508.287,531.917 509.655,540.201L514.248,568.335C558.741,843.172 604.726,1127.36 613.344,1403.93C616.495,1505.73 614.225,1599.22 607.06,1690.06C412.432,1665.37 280.53,1665.5 204.245,1731.97C161.49,1769.25 139.808,1825.31 139.808,1898.69C139.808,2066.9 255.199,2272.98 456.288,2464.12C626.014,2625.45 838.959,2760.43 1072.04,2854.37C1308.71,2949.75 1551.24,2997.94 1794.38,2997.94C1825.52,2997.94 1856.72,2997.15 1887.82,2995.52C2222.13,2978.54 2519.55,2883.42 2747.93,2720.47C2963.89,2566.35 3100.9,2361.25 3133.78,2143C3149.35,2039.74 3134.62,1935.38 3091.24,1841.22C3047.37,1746.05 2977.05,1667.79 2887.92,1614.79C2802.68,1564.11 2714.2,1546.81 2607.84,1556.64C2601.72,1496.58 2596.38,1437.53 2593.92,1378.51C2584.08,1142.32 2601.87,890.753 2653.28,537.396C2654.39,529.852 2655.51,522.296 2656.62,514.677C2656.88,512.902 2656.95,511.135 2656.95,509.359C2656.95,414.751 2542.29,333.775 2325.3,275.154C2125.98,221.303 1861.61,191.623 1580.96,191.623L1580.96,191.624Z" style="fill:rgb(255,0,0);fill-rule:nonzero;"/>
    </g>
    <g id="FMask">
        <path id="path2" d="M1580.96,191.623C1300.35,191.623 1036.05,221.304 836.77,275.154L836.72,275.204C727.983,304.59 645.045,339.56 589.269,379.086C561.656,398.637 540.751,419.331 526.67,440.96C519.543,451.924 514.102,463.112 510.524,474.557C506.945,485.972 505.11,497.597 505.11,509.458C505.11,509.705 505.209,509.94 505.209,510.183C505.258,511.869 505.382,513.557 505.645,515.21C506.976,523.606 508.288,531.917 509.657,540.202L514.201,568.336C558.694,843.173 604.728,1127.36 613.345,1403.94C616.494,1505.66 614.457,1599.33 607.303,1690.11C412.526,1665.38 280.567,1665.52 204.246,1732.02C161.491,1769.3 139.81,1825.36 139.81,1898.74C139.81,2066.95 255.153,2273.03 456.241,2464.17C625.967,2625.5 838.96,2760.43 1072.04,2854.37C1308.71,2949.75 1551.24,2997.94 1794.38,2997.94C1825.52,2997.94 1856.72,2997.15 1887.82,2995.52C2222.13,2978.54 2519.5,2883.42 2747.88,2720.47C2963.84,2566.35 3100.9,2361.25 3133.78,2143C3149.35,2039.74 3134.62,1935.43 3091.24,1841.26C3047.38,1746.1 2977.06,1667.79 2887.92,1614.79C2802.51,1564.01 2713.86,1546.72 2607.21,1556.69C2601.07,1496.51 2596.39,1437.64 2593.92,1378.51C2584.08,1142.32 2601.87,890.754 2653.28,537.397C2654.39,529.852 2655.46,522.345 2656.57,514.726C2656.83,512.951 2656.95,511.135 2656.95,509.36C2656.95,497.566 2655.13,486.006 2651.59,474.652C2647.95,462.991 2642.28,451.588 2634.96,440.428C2621,419.167 2600.43,398.818 2573.38,379.568C2517.57,339.839 2434.52,304.662 2325.3,275.154C2125.98,221.304 1861.61,191.623 1580.96,191.623L1580.96,191.623ZM1580.96,265.679C1658.36,265.679 1732,267.902 1801.68,271.964C1815.12,272.748 1826.53,274.379 1839.67,275.299C1894.87,279.158 1949.28,283.399 1999,289.414C2006.98,290.38 2013.45,291.83 2021.29,292.846C2073.7,299.638 2124.22,307.097 2169.93,315.856C2181.09,317.995 2189.83,320.675 2200.58,322.914C2240.37,331.202 2279.49,339.672 2313.45,349.114C2327.08,352.904 2337.24,357.165 2349.9,361.102C2377.21,369.594 2405.2,377.999 2427.87,387.012C2440.8,392.153 2449.56,397.518 2460.94,402.771C2478.81,411.022 2498.14,419.219 2512.08,427.618C2521.44,433.261 2526.29,438.888 2533.83,444.536C2544.66,452.643 2557.16,460.757 2564.14,468.755C2575.03,481.248 2580.87,493.474 2582.03,505.251C2582.13,506.301 2582.72,507.399 2582.75,508.442C2582.06,513.153 2581.37,517.835 2580.67,522.509C2573.98,544.019 2532.79,615.769 2278.36,679.516C2088.59,727.079 1840.93,753.282 1580.96,753.282C1322.47,753.282 1075.83,727.312 886.463,680.193C632.934,617.112 589.434,545.72 581.971,524.055C581.102,518.747 580.261,513.449 579.409,508.152C579.434,507.171 579.986,506.142 580.085,505.154C581.283,493.351 587.243,481.082 598.212,468.561C604.835,461.011 616.778,453.347 626.829,445.697C634.797,439.629 640.203,433.584 650.274,427.521C663.46,419.59 681.872,411.88 698.566,404.076C710.826,398.343 720.522,392.468 734.627,386.867C753.76,379.272 777.887,372.253 800.321,365.018C816.908,359.666 831.042,354.012 849.385,348.92C877.065,341.24 909.723,334.49 941.279,327.554C958.865,323.688 974.006,319.301 992.761,315.711C1030,308.586 1072.1,302.852 1113.8,297.004C1130.94,294.6 1145.83,291.524 1163.69,289.366C1205.64,284.3 1252.18,280.978 1298.03,277.426C1319.37,275.773 1338.51,273.205 1360.67,271.915C1430.23,267.868 1503.71,265.679 1580.96,265.679L1580.96,265.679ZM2567.33,639.442C2528.58,934.35 2511.23,1169.43 2520.06,1381.65C2523.09,1454.24 2528.66,1525.89 2537.12,1600.58C2537.12,1600.63 2537.07,1600.68 2537.07,1600.73C2537.58,1605.21 2538.33,1610.21 2538.86,1614.75C2541.55,1637.76 2544.41,1661.14 2547.75,1685.37C2533.24,1699.13 2517.85,1712.78 2499.17,1725.83C2496.96,1727.38 2494.91,1728.94 2492.65,1730.47C2467.96,1747.17 2440.25,1763.29 2408.97,1778.62C2360.59,1802.35 2306.24,1823.54 2247.08,1841.99C2187.92,1860.44 2123.95,1876.15 2056.33,1888.88C1989.34,1901.5 1918.7,1911.11 1845.67,1917.69C1844.3,1917.82 1842.93,1917.96 1841.56,1918.08C1769.14,1924.48 1694.33,1927.83 1618.23,1927.89C1617.5,1927.89 1616.79,1927.94 1616.05,1927.94C1615.32,1927.94 1614.61,1927.89 1613.88,1927.89C1537.06,1927.82 1461.52,1924.51 1388.47,1917.98L1388.42,1917.98C1315.23,1911.45 1244.56,1901.76 1177.42,1889.17C1176.45,1889 1175.49,1888.77 1174.52,1888.59C1107.66,1875.95 1044.31,1860.47 985.751,1842.24C985.504,1842.16 985.266,1842.06 985.026,1841.99C984.853,1841.94 984.704,1841.89 984.543,1841.84C925.622,1823.44 871.483,1802.3 823.282,1778.66C823.232,1778.64 823.183,1778.63 823.133,1778.61C822.77,1778.44 822.433,1778.26 822.069,1778.08C812.059,1773.16 802.394,1768.14 793.017,1763.04C791.765,1762.36 790.51,1761.68 789.295,1761.01C782.479,1757.26 776.034,1753.4 769.572,1749.56C764.096,1746.31 758.735,1743 753.475,1739.65C747.181,1735.65 740.866,1731.69 734.961,1727.61C734.352,1727.19 733.729,1726.78 733.125,1726.35C724.722,1720.5 716.676,1714.56 709.1,1708.57C708.523,1708.11 708.078,1707.62 707.506,1707.16C698.017,1699.55 690.028,1691.77 681.934,1684.01C688.564,1594.24 690.309,1501.68 687.252,1401.66C679.388,1149.27 640.49,893.444 600.337,643.207C674.083,692.657 776.633,729.044 868.622,751.923C1063.68,800.448 1316.66,827.188 1580.96,827.188C1846.81,827.188 2100.82,800.215 2296.29,751.246C2389.84,727.797 2494.12,690.483 2567.33,639.436L2567.33,639.442ZM2615.33,1628.76C2706.31,1620.21 2778.16,1635.66 2850.12,1678.46C3005.61,1770.88 3088.23,1948.96 3060.64,2132.08C3030.76,2330.32 2904.41,2517.93 2704.91,2660.28C2488.06,2815.03 2204.24,2905.43 1884.1,2921.7C1854.51,2923.18 1825.17,2923.93 1796.02,2923.93C1246.16,2923.93 773.643,2663.8 507.238,2410.56C323.496,2235.92 213.768,2044.62 213.768,1898.79C213.768,1847.01 226.567,1810.69 252.826,1787.8C285.447,1759.36 340.785,1748.35 414.571,1748.35C467.452,1748.35 529.849,1754.04 600.099,1763.15C599.925,1764.69 599.794,1766.24 599.616,1767.79C591.219,1840.14 579.318,1910.9 563.7,1978.4C563.675,1978.53 563.625,1978.66 563.601,1978.79C563.594,1978.81 563.608,1978.86 563.601,1978.89C556.986,2007.56 549.572,2036.07 541.703,2063.63C540.743,2066.92 540.253,2070.34 540.253,2073.78C540.253,2073.8 540.252,2073.8 540.253,2073.83C540.26,2105.71 547.492,2136.95 561.667,2167.17C561.676,2167.19 561.716,2167.2 561.716,2167.22C561.741,2167.3 561.791,2167.35 561.815,2167.42C575.985,2197.55 597.069,2226.62 624.657,2254.43C624.707,2254.48 624.756,2254.55 624.806,2254.63C624.905,2254.73 625.004,2254.83 625.095,2254.92C652.757,2282.71 686.914,2309.2 727.334,2334C727.358,2334.02 727.408,2334.03 727.433,2334.05C727.532,2334.1 727.631,2334.15 727.722,2334.2C768.258,2359.05 815.035,2382.25 867.714,2403.42C917.391,2423.39 971.112,2441.1 1028.06,2456.5C1029.15,2456.8 1030.25,2457.08 1031.34,2457.37C1088.35,2472.66 1148.57,2485.66 1211.31,2496.14C1274.6,2506.71 1340.44,2514.75 1408.06,2520.16C1408.13,2520.17 1408.2,2520.21 1408.3,2520.21C1408.32,2520.22 1408.33,2520.21 1408.35,2520.21C1408.38,2520.22 1408.43,2520.21 1408.45,2520.21C1475.34,2525.56 1543.97,2528.27 1613.61,2528.34C1614.44,2528.34 1615.23,2528.43 1616.07,2528.43C1616.91,2528.43 1617.7,2528.34 1618.54,2528.34C1687.15,2528.26 1754.81,2525.57 1820.79,2520.36C1822.36,2520.24 1823.91,2520.1 1825.48,2519.97C1891.34,2514.65 1955.47,2506.84 2017.24,2496.62C2018.88,2496.36 2020.49,2496.12 2022.12,2495.85C2083.01,2485.64 2141.48,2472.99 2196.97,2458.24C2199.51,2457.57 2202.03,2456.95 2204.56,2456.26C2260.12,2441.22 2312.63,2423.98 2361.28,2404.59C2361.73,2404.41 2362.28,2404.28 2362.73,2404.1C2363.1,2403.96 2363.36,2403.77 2363.74,2403.62C2415.75,2382.75 2462.07,2359.92 2502.28,2335.46C2502.6,2335.26 2502.93,2335.08 2503.25,2334.88C2543.56,2310.28 2577.75,2284.05 2605.49,2256.48C2605.59,2256.38 2605.69,2256.28 2605.78,2256.19C2605.83,2256.14 2605.88,2256.06 2605.93,2255.99C2633.66,2228.34 2654.92,2199.38 2669.35,2169.41C2669.37,2169.36 2669.42,2169.31 2669.45,2169.26C2669.45,2169.25 2669.44,2169.24 2669.45,2169.22C2669.46,2169.2 2669.5,2169.19 2669.5,2169.16C2683.93,2139.1 2691.5,2108.03 2691.88,2076.3C2691.88,2076.29 2691.88,2076.28 2691.88,2076.26C2691.88,2075.99 2691.78,2075.74 2691.78,2075.48C2691.76,2073.12 2691.56,2070.74 2691.1,2068.43C2687.06,2048.83 2683.21,2029.79 2679.41,2010.8C2678.44,2006 2677.41,2000.98 2676.46,1996.21C2676.45,1996.19 2676.46,1996.18 2676.46,1996.16C2676.41,1995.93 2676.41,1995.76 2676.36,1995.53C2653.06,1878.38 2636.37,1782.84 2623.86,1695.19L2623.86,1695.14C2620.54,1671.95 2618.05,1650.57 2615.35,1628.77L2615.33,1628.76Z" style="fill:rgb(255,255,0);fill-rule:nonzero;"/>
    </g>
    <g id="FCu">
        <path id="path21" serif:id="path2" d="M1580.96,191.623C1300.35,191.623 1036.05,221.304 836.77,275.154L836.72,275.204C727.983,304.59 645.045,339.56 589.269,379.086C561.656,398.637 540.751,419.331 526.67,440.96C519.543,451.924 514.102,463.112 510.524,474.557C506.945,485.972 505.11,497.597 505.11,509.458C505.11,509.705 505.209,509.94 505.209,510.183C505.258,511.869 505.382,513.557 505.645,515.21C506.976,523.606 508.288,531.917 509.657,540.202L514.201,568.336C558.694,843.173 604.728,1127.36 613.345,1403.94C616.494,1505.66 614.457,1599.33 607.303,1690.11C412.526,1665.38 280.567,1665.52 204.246,1732.02C161.491,1769.3 139.81,1825.36 139.81,1898.74C139.81,2066.95 255.153,2273.03 456.241,2464.17C625.967,2625.5 838.96,2760.43 1072.04,2854.37C1308.71,2949.75 1551.24,2997.94 1794.38,2997.94C1825.52,2997.94 1856.72,2997.15 1887.82,2995.52C2222.13,2978.54 2519.5,2883.42 2747.88,2720.47C2963.84,2566.35 3100.9,2361.25 3133.78,2143C3149.35,2039.74 3134.62,1935.43 3091.24,1841.26C3047.38,1746.1 2977.06,1667.79 2887.92,1614.79C2802.51,1564.01 2713.86,1546.72 2607.21,1556.69C2601.07,1496.51 2596.39,1437.64 2593.92,1378.51C2584.08,1142.32 2601.87,890.754 2653.28,537.397C2654.39,529.852 2655.46,522.345 2656.57,514.726C2656.83,512.951 2656.95,511.135 2656.95,509.36C2656.95,497.566 2655.13,486.006 2651.59,474.652C2647.95,462.991 2642.28,451.588 2634.96,440.428C2621,419.167 2600.43,398.818 2573.38,379.568C2517.57,339.839 2434.52,304.662 2325.3,275.154C2125.98,221.304 1861.61,191.623 1580.96,191.623L1580.96,191.623ZM1580.96,265.679C1658.36,265.679 1732,267.902 1801.68,271.964C1815.12,272.748 1826.53,274.379 1839.67,275.299C1894.87,279.158 1949.28,283.399 1999,289.414C2006.98,290.38 2013.45,291.83 2021.29,292.846C2073.7,299.638 2124.22,307.097 2169.93,315.856C2181.09,317.995 2189.83,320.675 2200.58,322.914C2240.37,331.202 2279.49,339.672 2313.45,349.114C2327.08,352.904 2337.24,357.165 2349.9,361.102C2377.21,369.594 2405.2,377.999 2427.87,387.012C2440.8,392.153 2449.56,397.518 2460.94,402.771C2478.81,411.022 2498.14,419.219 2512.08,427.618C2521.44,433.261 2526.29,438.888 2533.83,444.536C2544.66,452.643 2557.16,460.757 2564.14,468.755C2575.03,481.248 2580.87,493.474 2582.03,505.251C2582.13,506.301 2582.72,507.399 2582.75,508.442C2582.06,513.153 2581.37,517.835 2580.67,522.509C2573.98,544.019 2532.79,615.769 2278.36,679.516C2088.59,727.079 1840.93,753.282 1580.96,753.282C1322.47,753.282 1075.83,727.312 886.463,680.193C632.934,617.112 589.434,545.72 581.971,524.055C581.102,518.747 580.261,513.449 579.409,508.152C579.434,507.171 579.986,506.142 580.085,505.154C581.283,493.351 587.243,481.082 598.212,468.561C604.835,461.011 616.778,453.347 626.829,445.697C634.797,439.629 640.203,433.584 650.274,427.521C663.46,419.59 681.872,411.88 698.566,404.076C710.826,398.343 720.522,392.468 734.627,386.867C753.76,379.272 777.887,372.253 800.321,365.018C816.908,359.666 831.042,354.012 849.385,348.92C877.065,341.24 909.723,334.49 941.279,327.554C958.865,323.688 974.006,319.301 992.761,315.711C1030,308.586 1072.1,302.852 1113.8,297.004C1130.94,294.6 1145.83,291.524 1163.69,289.366C1205.64,284.3 1252.18,280.978 1298.03,277.426C1319.37,275.773 1338.51,273.205 1360.67,271.915C1430.23,267.868 1503.71,265.679 1580.96,265.679L1580.96,265.679ZM2567.33,639.442C2528.58,934.35 2511.23,1169.43 2520.06,1381.65C2523.09,1454.24 2528.66,1525.89 2537.12,1600.58C2537.12,1600.63 2537.07,1600.68 2537.07,1600.73C2537.58,1605.21 2538.33,1610.21 2538.86,1614.75C2541.55,1637.76 2544.41,1661.14 2547.75,1685.37C2533.24,1699.13 2517.85,1712.78 2499.17,1725.83C2496.96,1727.38 2494.91,1728.94 2492.65,1730.47C2467.96,1747.17 2440.25,1763.29 2408.97,1778.62C2360.59,1802.35 2306.24,1823.54 2247.08,1841.99C2187.92,1860.44 2123.95,1876.15 2056.33,1888.88C1989.34,1901.5 1918.7,1911.11 1845.67,1917.69C1844.3,1917.82 1842.93,1917.96 1841.56,1918.08C1769.14,1924.48 1694.33,1927.83 1618.23,1927.89C1617.5,1927.89 1616.79,1927.94 1616.05,1927.94C1615.32,1927.94 1614.61,1927.89 1613.88,1927.89C1537.06,1927.82 1461.52,1924.51 1388.47,1917.98L1388.42,1917.98C1315.23,1911.45 1244.56,1901.76 1177.42,1889.17C1176.45,1889 1175.49,1888.77 1174.52,1888.59C1107.66,1875.95 1044.31,1860.47 985.751,1842.24C985.504,1842.16 985.266,1842.06 985.026,1841.99C984.853,1841.94 984.704,1841.89 984.543,1841.84C925.622,1823.44 871.483,1802.3 823.282,1778.66C823.232,1778.64 823.183,1778.63 823.133,1778.61C822.77,1778.44 822.433,1778.26 822.069,1778.08C812.059,1773.16 802.394,1768.14 793.017,1763.04C791.765,1762.36 790.51,1761.68 789.295,1761.01C782.479,1757.26 776.034,1753.4 769.572,1749.56C764.096,1746.31 758.735,1743 753.475,1739.65C747.181,1735.65 740.866,1731.69 734.961,1727.61C734.352,1727.19 733.729,1726.78 733.125,1726.35C724.722,1720.5 716.676,1714.56 709.1,1708.57C708.523,1708.11 708.078,1707.62 707.506,1707.16C698.017,1699.55 690.028,1691.77 681.934,1684.01C688.564,1594.24 690.309,1501.68 687.252,1401.66C679.388,1149.27 640.49,893.444 600.337,643.207C674.083,692.657 776.633,729.044 868.622,751.923C1063.68,800.448 1316.66,827.188 1580.96,827.188C1846.81,827.188 2100.82,800.215 2296.29,751.246C2389.84,727.797 2494.12,690.483 2567.33,639.436L2567.33,639.442ZM2615.33,1628.76C2706.31,1620.21 2778.16,1635.66 2850.12,1678.46C3005.61,1770.88 3088.23,1948.96 3060.64,2132.08C3030.76,2330.32 2904.41,2517.93 2704.91,2660.28C2488.06,2815.03 2204.24,2905.43 1884.1,2921.7C1854.51,2923.18 1825.17,2923.93 1796.02,2923.93C1246.16,2923.93 773.643,2663.8 507.238,2410.56C323.496,2235.92 213.768,2044.62 213.768,1898.79C213.768,1847.01 226.567,1810.69 252.826,1787.8C285.447,1759.36 340.785,1748.35 414.571,1748.35C467.452,1748.35 529.849,1754.04 600.099,1763.15C599.925,1764.69 599.794,1766.24 599.616,1767.79C591.219,1840.14 579.318,1910.9 563.7,1978.4C563.675,1978.53 563.625,1978.66 563.601,1978.79C563.594,1978.81 563.608,1978.86 563.601,1978.89C556.986,2007.56 549.572,2036.07 541.703,2063.63C540.743,2066.92 540.253,2070.34 540.253,2073.78C540.253,2073.8 540.252,2073.8 540.253,2073.83C540.26,2105.71 547.492,2136.95 561.667,2167.17C561.676,2167.19 561.716,2167.2 561.716,2167.22C561.741,2167.3 561.791,2167.35 561.815,2167.42C575.985,2197.55 597.069,2226.62 624.657,2254.43C624.707,2254.48 624.756,2254.55 624.806,2254.63C624.905,2254.73 625.004,2254.83 625.095,2254.92C652.757,2282.71 686.914,2309.2 727.334,2334C727.358,2334.02 727.408,2334.03 727.433,2334.05C727.532,2334.1 727.631,2334.15 727.722,2334.2C768.258,2359.05 815.035,2382.25 867.714,2403.42C917.391,2423.39 971.112,2441.1 1028.06,2456.5C1029.15,2456.8 1030.25,2457.08 1031.34,2457.37C1088.35,2472.66 1148.57,2485.66 1211.31,2496.14C1274.6,2506.71 1340.44,2514.75 1408.06,2520.16C1408.13,2520.17 1408.2,2520.21 1408.3,2520.21C1408.32,2520.22 1408.33,2520.21 1408.35,2520.21C1408.38,2520.22 1408.43,2520.21 1408.45,2520.21C1475.34,2525.56 1543.97,2528.27 1613.61,2528.34C1614.44,2528.34 1615.23,2528.43 1616.07,2528.43C1616.91,2528.43 1617.7,2528.34 1618.54,2528.34C1687.15,2528.26 1754.81,2525.57 1820.79,2520.36C1822.36,2520.24 1823.91,2520.1 1825.48,2519.97C1891.34,2514.65 1955.47,2506.84 2017.24,2496.62C2018.88,2496.36 2020.49,2496.12 2022.12,2495.85C2083.01,2485.64 2141.48,2472.99 2196.97,2458.24C2199.51,2457.57 2202.03,2456.95 2204.56,2456.26C2260.12,2441.22 2312.63,2423.98 2361.28,2404.59C2361.73,2404.41 2362.28,2404.28 2362.73,2404.1C2363.1,2403.96 2363.36,2403.77 2363.74,2403.62C2415.75,2382.75 2462.07,2359.92 2502.28,2335.46C2502.6,2335.26 2502.93,2335.08 2503.25,2334.88C2543.56,2310.28 2577.75,2284.05 2605.49,2256.48C2605.59,2256.38 2605.69,2256.28 2605.78,2256.19C2605.83,2256.14 2605.88,2256.06 2605.93,2255.99C2633.66,2228.34 2654.92,2199.38 2669.35,2169.41C2669.37,2169.36 2669.42,2169.31 2669.45,2169.26C2669.45,2169.25 2669.44,2169.24 2669.45,2169.22C2669.46,2169.2 2669.5,2169.19 2669.5,2169.16C2683.93,2139.1 2691.5,2108.03 2691.88,2076.3C2691.88,2076.29 2691.88,2076.28 2691.88,2076.26C2691.88,2075.99 2691.78,2075.74 2691.78,2075.48C2691.76,2073.12 2691.56,2070.74 2691.1,2068.43C2687.06,2048.83 2683.21,2029.79 2679.41,2010.8C2678.44,2006 2677.41,2000.98 2676.46,1996.21C2676.45,1996.19 2676.46,1996.18 2676.46,1996.16C2676.41,1995.93 2676.41,1995.76 2676.36,1995.53C2653.06,1878.38 2636.37,1782.84 2623.86,1695.19L2623.86,1695.14C2620.54,1671.95 2618.05,1650.57 2615.35,1628.77L2615.33,1628.76Z" style="fill:rgb(255,255,0);fill-rule:nonzero;"/>
    </g>
</svg>
